<svg xmlns:dc="http://purl.org/dc/elements/1.1/" xmlns:cc="http://creativecommons.org/ns#" xmlns:rdf="http://www.w3.org/1999/02/22-rdf-syntax-ns#" xmlns:svg="http://www.w3.org/2000/svg" xmlns="http://www.w3.org/2000/svg" version="1.1" viewBox="0 0 100 100" x="0px" y="0px"><g transform="translate(0,-952.36216)"><path style="color:black;font-style:normal;font-variant:normal;font-weight:normal;font-stretch:normal;font-size:medium;line-height:normal;font-family:sans-serif;text-indent:0;text-align:start;text-decoration:none;text-decoration-line:none;text-decoration-style:solid;text-decoration-color:black;letter-spacing:normal;word-spacing:normal;text-transform:none;direction:ltr;block-progression:tb;writing-mode:lr-tb;baseline-shift:baseline;text-anchor:start;white-space:normal;clip-rule:nonzero;display:inline;overflow:visible;visibility:visible;opacity:1;isolation:auto;mix-blend-mode:normal;color-interpolation:sRGB;color-interpolation-filters:linearRGB;solid-color:black;solid-opacity:1;fill:black;fill-opacity:1;fill-rule:evenodd;stroke:none;stroke-width:5;stroke-linecap:round;stroke-linejoin:round;stroke-miterlimit:4;stroke-dasharray:none;stroke-dashoffset:0;stroke-opacity:1;marker:none;color-rendering:auto;image-rendering:auto;shape-rendering:auto;text-rendering:auto;enable-background:accumulate" d="m 9.999998,959.86213 a 2.50025,2.50025 0 0 0 -2.5,2.5 l 0,20 a 2.50025,2.50025 0 0 0 2.5,2.5 l 80.000004,0 a 2.50025,2.50025 0 0 0 2.5,-2.5 l 0,-20 a 2.50025,2.50025 0 0 0 -2.5,-2.5 l -80.000004,0 z m 2.5,5 75.000004,0 0,15 -75.000004,0 0,-15 z m -2.5,25 a 2.50025,2.50025 0 0 0 -2.5,2.5 l 0,20.00007 a 2.50025,2.50025 0 0 0 2.5,2.5 l 80.000004,0 a 2.50025,2.50025 0 0 0 2.5,-2.5 l 0,-20.00007 a 2.50025,2.50025 0 0 0 -2.5,-2.5 l -80.000004,0 z m 2.5,5 75.000004,0 0,15.00007 -75.000004,0 0,-15.00007 z m -2.5,25.00007 a 2.50025,2.50025 0 0 0 -2.5,2.5 l 0,20 a 2.50025,2.50025 0 0 0 2.5,2.5 l 80.000004,0 a 2.50025,2.50025 0 0 0 2.5,-2.5 l 0,-20 a 2.50025,2.50025 0 0 0 -2.5,-2.5 l -80.000004,0 z m 2.5,5 75.000004,0 0,15 -75.000004,0 0,-15 z"></path></g></svg>