<svg xmlns="http://www.w3.org/2000/svg" xmlns:xlink="http://www.w3.org/1999/xlink" version="1.1" x="0px" y="0px" viewBox="0 0 100 100" enable-background="new 0 0 100 100" xml:space="preserve"><path fill="#000000" d="M10,0v100h80V0H10z M87,94H13V3h74V94z"></path><rect x="19.8" y="65.7" fill="#000000" width="61.8" height="2.2"></rect><rect x="19.8" y="57.8" fill="#000000" width="61.8" height="2.2"></rect><rect x="19.8" y="73.6" fill="#000000" width="61.8" height="2.2"></rect><rect x="19.8" y="81.5" fill="#000000" width="61.8" height="2.2"></rect><rect x="19.8" y="7.3" fill="#000000" width="47.2" height="3.5"></rect><path fill="#000000" d="M25.8,48.5c-0.6,0-1.3-0.3-1.8-0.8c-1-1-0.9-2.6,0-3.5l15-14.6l9.2,5.9l10.9-15.6H73c1.4,0,2.5,1.1,2.5,2.5  s-1.1,2.5-2.5,2.5H61.8L49.6,42.3L39.7,36L27.6,47.8C27.1,48.3,26.5,48.5,25.8,48.5z"></path><path fill="#000000" d="M25.8,48.5c-1.4,0-2.5-1.1-2.5-2.5V20c0-1.4,1.1-2.5,2.5-2.5s2.5,1.1,2.5,2.5v26  C28.3,47.4,27.2,48.5,25.8,48.5z"></path><path fill="#000000" d="M74.8,49.2H25.8c-1.4,0-2.5-1.1-2.5-2.5s1.1-2.5,2.5-2.5h48.9c1.4,0,2.5,1.1,2.5,2.5S76.1,49.2,74.8,49.2z"></path></svg>