<svg xmlns="http://www.w3.org/2000/svg" xmlns:xlink="http://www.w3.org/1999/xlink" version="1.1" x="0px" y="0px" viewBox="0 0 48 48" enable-background="new 0 0 48 48" xml:space="preserve"><g><path fill="#000000" d="M24,47.5c-0.3,0-0.6-0.2-0.8-0.4L0.7,13.7c-0.2-0.3-0.2-0.7-0.1-1c0.2-0.3,0.5-0.5,0.9-0.5h45   c0.4,0,0.7,0.2,0.9,0.5c0.2,0.3,0.2,0.7-0.1,1L24.8,47.1C24.6,47.3,24.3,47.5,24,47.5z M3.4,14.1L24,44.7l20.6-30.6H3.4z"></path><path fill="#000000" d="M24,47.5c-0.4,0-0.8-0.3-0.9-0.7L11.8,13.4c-0.1-0.3-0.1-0.6,0.1-0.9c0.2-0.3,0.5-0.4,0.8-0.4h22.5   c0.3,0,0.6,0.2,0.8,0.4c0.2,0.3,0.2,0.6,0.1,0.9L24.9,46.8C24.8,47.2,24.4,47.5,24,47.5z M14.1,14.1L24,43.4l9.9-29.3H14.1z"></path><path fill="#000000" d="M46.5,14.1h-45c-0.4,0-0.7-0.2-0.9-0.5c-0.2-0.3-0.2-0.7,0-1L7.6,1c0.2-0.3,0.5-0.5,0.9-0.5h31.1   c0.4,0,0.7,0.2,0.9,0.5l6.9,11.6c0.2,0.3,0.2,0.7,0,1C47.2,13.9,46.9,14.1,46.5,14.1z M3.3,12.1h41.5L39,2.5H9L3.3,12.1z"></path><path fill="#000000" d="M35.3,14.1H12.8c-0.3,0-0.6-0.1-0.8-0.4c-0.2-0.3-0.2-0.6-0.2-0.9l3.5-11.6c0.1-0.4,0.5-0.7,1-0.7h15.6   c0.4,0,0.8,0.3,1,0.7l3.5,11.6c0.1,0.3,0,0.6-0.2,0.9C35.9,14,35.6,14.1,35.3,14.1z M14.1,12.1h19.8L31,2.5H17L14.1,12.1z"></path></g></svg>